<?xml version="1.0" encoding="UTF-8" standalone="no"?><!DOCTYPE svg PUBLIC "-//W3C//DTD SVG 1.1//EN" "http://www.w3.org/Graphics/SVG/1.1/DTD/svg11.dtd"><svg width="100%" height="100%" viewBox="0 0 86 88" version="1.1" xmlns="http://www.w3.org/2000/svg" xmlns:xlink="http://www.w3.org/1999/xlink" xml:space="preserve" xmlns:serif="http://www.serif.com/" style="fill-rule:evenodd;clip-rule:evenodd;stroke-linejoin:round;stroke-miterlimit:2;"><rect id="Artboard1" x="0" y="0" width="85.548" height="87.774" style="fill:none;"/><path d="M67.645,31.787c1.147,1.932 15.312,26.108 -1.968,44.756c-4.43,4.786 -10.18,7.291 -15.989,7.291c-3.119,-0 -6.257,-0.724 -9.23,-2.214c-7.851,-3.942 -11.901,-12.048 -10.314,-20.671c0.02,-0.108 0.04,-0.215 0.061,-0.322c-7.275,-0.316 -12.961,-4.045 -15.48,-10.193c-10.615,-25.898 7.193,-45.489 7.489,-45.813c0.198,-0.22 0.318,-0.349 0.473,-0.447l0.456,-0.19l0.024,-0.005l0.326,-0.039l0.326,0.023c0.171,0.028 0.362,0.083 0.576,0.179c0.288,0.123 20.154,8.099 26.58,30.823c7.581,-3.521 14.35,-4.194 14.739,-4.237l0.003,-0l0.451,0.003l0.512,0.141l0.068,0.031l0.489,0.333l0.353,0.44c0.02,0.036 0.039,0.073 0.055,0.111Zm-36.105,27.785l-0,0.015c0.001,-0.005 0.002,-0.01 0.004,-0.015l-0.004,-0Zm-0.318,-0l-0,0.672l0.002,0.002l0.002,-0.674l-0.004,-0Zm25.085,-22.635c-8.404,3.022 -19.595,9.781 -22.335,24.686c-0.917,4.994 0.533,9.772 3.801,13.215l0.177,-0.134l0.349,-0.166l0.385,-0.095l0.012,-0.002l0.386,-0.012l0.372,0.062l0.349,0.13l0.315,0.192l0.275,0.249l0.226,0.302l0.166,0.348l0.095,0.384l0.002,0.01c0.042,0.32 0.092,0.641 0.148,0.965l0.305,-0.592l0.008,-0.016l0.217,-0.323l0.269,-0.268l0.309,-0.208l0.34,-0.145l0.362,-0.078l0.374,-0.008l0.377,0.065l0.364,0.143l0.018,0.009l0.323,0.217l0.269,0.269l0.208,0.31l0.144,0.34l0.079,0.361l0.008,0.375l-0.066,0.376l-0.142,0.365l-0.384,0.749l0.279,0.091c11.724,-3.412 17.005,-11.983 19.2,-20.772c1.925,-7.703 1.507,-15.582 0.918,-20.446l-0.494,0.068l-0.457,-0.055l-0.403,-0.144l-0.048,-0.024l-0.323,-0.216l-0.269,-0.269l-0.208,-0.31l-0.144,-0.34l-0.079,-0.362l-0.004,-0.177l-0.181,-0.078l-0.411,-0.326l-0.199,-0.275c-0.24,0.056 -0.488,0.116 -0.742,0.18c0.008,0.013 0.016,0.026 0.024,0.039c0.392,0.635 0.198,1.477 -0.435,1.867c-1.091,0.682 -2.182,1.411 -3.24,2.176c-0.026,0.019 -0.055,0.036 -0.084,0.049c-0.217,0.141 -0.471,0.207 -0.714,0.207c-0.418,-0 -0.826,-0.19 -1.095,-0.554c-0.452,-0.611 -0.312,-1.467 0.297,-1.901c0.234,-0.169 0.47,-0.336 0.707,-0.503Zm0.131,2.467c0.052,0.145 0.167,0.254 0.308,0.3c-0.138,-0.048 -0.25,-0.157 -0.299,-0.3c-0.003,-0 -0.006,0 -0.009,0Zm0.308,0.3c0.045,0.015 0.093,0.024 0.143,0.025l-0.143,-0.025Zm-6.451,5.352l-0.003,-0.007c-0.351,-0.001 -0.687,-0.135 -0.954,-0.402c-0.541,-0.531 -0.533,-1.386 -0.002,-1.917l0.002,-0.002c0.96,-0.947 1.985,-1.872 3.034,-2.764c0.572,-0.487 1.425,-0.412 1.912,0.16c0.488,0.572 0.412,1.426 -0.16,1.913l-0.002,0.002c-1.005,0.848 -1.967,1.723 -2.875,2.623c-0.255,0.255 -0.612,0.394 -0.952,0.394Zm0.442,-0.279c-0.079,0.159 -0.242,0.269 -0.432,0.272c0.045,0.002 0.298,-0.001 0.432,-0.272Zm-0.908,-0.358c-0.126,0.399 0.393,0.602 0.462,0.628c-0.025,-0.055 -0.154,-0.338 -0.266,-0.532c-0.068,-0.023 -0.134,-0.055 -0.196,-0.096Zm-4.702,6.729l-0.005,-0.01c-0.269,-0.002 -0.536,-0.082 -0.761,-0.24c-0.628,-0.426 -0.777,-1.283 -0.343,-1.891c0.771,-1.103 1.62,-2.2 2.524,-3.261l0.002,-0.002c0.487,-0.567 1.339,-0.636 1.911,-0.148l0.002,0.001c0.566,0.487 0.635,1.34 0.148,1.912c-0.849,0.993 -1.646,2.02 -2.362,3.052c-0.261,0.383 -0.68,0.587 -1.116,0.587Zm0.469,-0.347c-0.052,0.158 -0.183,0.281 -0.346,0.322c0.113,-0.027 0.274,-0.105 0.346,-0.322Zm-0.935,-0.291c-0.132,0.437 0.379,0.602 0.459,0.625c-0.038,-0.069 -0.22,-0.399 -0.343,-0.562c-0.04,-0.018 -0.079,-0.039 -0.116,-0.063Zm10.617,3.117c0.66,0.354 0.914,1.168 0.577,1.827l-1.934,3.753l-0.003,0.005c-0.243,0.459 -0.719,0.728 -1.205,0.728c-0.218,-0 -0.425,-0.045 -0.627,-0.152l-0.004,-0.001c-0.659,-0.354 -0.914,-1.168 -0.576,-1.827l1.934,-3.753l0.003,-0.007c0.354,-0.66 1.167,-0.915 1.827,-0.577l0.008,0.004Zm-0.231,0.432c-0.01,-0.249 -0.04,-0.495 -0.119,-0.475l0.055,0.445c0.021,0.009 0.043,0.019 0.064,0.03Zm-15.922,13.464c-0,-0.256 -0.198,-0.47 -0.455,-0.488c0.745,0.053 1.313,0.689 1.27,1.434l0,0.003c-0.043,0.684 -0.06,1.375 -0.06,2.059c0,0.582 0.017,1.181 0.043,1.784c0.043,0.747 -0.537,1.385 -1.284,1.427l-0.027,0.001l-0.044,0c-0.72,0 -1.314,-0.554 -1.356,-1.284l-0,-0.008c-0.028,-0.65 -0.045,-1.29 -0.045,-1.92c0,-0.738 0.017,-1.476 0.062,-2.214l0,-0.005c0.053,-0.745 0.689,-1.313 1.434,-1.271l-0.014,0.484c0.132,0.011 0.254,0.051 0.362,0.112l0.114,-0.114l-0.113,0.115c0.029,0.016 0.057,0.034 0.083,0.053c0.018,-0.047 0.028,-0.097 0.03,-0.15l-0,-0.018Zm-0.898,0.084l-0.081,-0.083c-0,0.043 0.004,0.082 0.013,0.118c0.022,-0.013 0.045,-0.024 0.068,-0.035Zm5.471,-15.596c0.635,0.372 0.866,1.188 0.505,1.832c-0.624,1.118 -1.195,2.28 -1.682,3.451l-0.001,0.003c-0.217,0.514 -0.72,0.827 -1.25,0.827c-0.171,0 -0.347,-0.034 -0.518,-0.102l-0.006,-0.002c-0.689,-0.281 -1.021,-1.08 -0.735,-1.774l0.001,-0.002c0.525,-1.257 1.133,-2.513 1.809,-3.725c0.366,-0.652 1.194,-0.892 1.846,-0.527l0.01,0.007l0.021,0.012c0.173,0.115 0.256,0.328 0.203,0.532c-0.023,0.086 -0.067,0.162 -0.127,0.221c0.002,0.004 0.004,0.008 0.006,0.011c0.062,-0.06 0.108,-0.137 0.131,-0.225c0.054,-0.208 -0.033,-0.426 -0.213,-0.539Zm16.122,-7.256l-0.003,-0.002c-0.66,-0.353 -0.915,-1.167 -0.577,-1.826l1.934,-3.753l0.004,-0.007c0.353,-0.66 1.167,-0.915 1.826,-0.577l0.008,0.004c0.66,0.354 0.915,1.168 0.577,1.827l-1.934,3.753l-0.002,0.004c-0.243,0.46 -0.719,0.728 -1.205,0.728c-0.219,0 -0.426,-0.044 -0.628,-0.151Zm0.163,-0.471l0.065,0.528c0,-0 0.01,-0.246 0,-0.49c-0.022,-0.012 -0.044,-0.025 -0.065,-0.038Zm-8.563,16.858c0.66,0.354 0.914,1.168 0.577,1.827l-1.934,3.753l-0.003,0.004c-0.243,0.46 -0.719,0.728 -1.205,0.728c-0.218,0 -0.425,-0.044 -0.627,-0.151l-0.004,-0.002c-0.659,-0.353 -0.914,-1.167 -0.576,-1.826l1.934,-3.753l0.004,-0.007c0.353,-0.66 1.166,-0.915 1.826,-0.577l0.008,0.004Zm-0.231,0.431c-0.01,-0.248 -0.04,-0.494 -0.119,-0.475l0.055,0.446c0.021,0.009 0.043,0.019 0.064,0.029Zm6.604,-9.879c-0.243,0.459 -0.719,0.728 -1.205,0.728c-0.219,-0 -0.426,-0.045 -0.628,-0.151l-0.003,-0.002c-0.66,-0.354 -0.915,-1.168 -0.577,-1.827l1.934,-3.753l0.004,-0.007c0.353,-0.659 1.167,-0.915 1.826,-0.577l0.008,0.004c0.66,0.354 0.915,1.168 0.577,1.827l-1.934,3.753l-0.002,0.005Zm-10.24,16.966c0.659,0.354 0.914,1.168 0.576,1.827l-1.934,3.753l-0.002,0.005c-0.243,0.459 -0.719,0.728 -1.205,0.728c-0.212,-0 -0.413,-0.05 -0.609,-0.142l-0.022,-0.011c-0.659,-0.354 -0.914,-1.168 -0.577,-1.827l1.934,-3.753l0.004,-0.007c0.354,-0.66 1.167,-0.915 1.826,-0.577l0.009,0.004Zm-0.252,0.422c-0.02,-0.244 -0.058,-0.48 -0.135,-0.455l0.07,0.426c0.022,0.009 0.043,0.018 0.065,0.029Zm-7.054,-9.364l0.067,-0.492c0.721,0.201 1.131,0.956 0.929,1.677l-0.001,0.006c-0.361,1.228 -0.651,2.486 -0.865,3.74l-0.001,0.007c-0.121,0.66 -0.688,1.119 -1.338,1.119c-0.054,-0 -0.098,-0.01 -0.149,-0.01c-0.027,-0 -0.053,-0.003 -0.079,-0.007c-0.748,-0.122 -1.237,-0.827 -1.115,-1.559c0.226,-1.357 0.542,-2.717 0.929,-4.041c0.201,-0.721 0.956,-1.13 1.677,-0.929l-0.067,0.485c0.004,0.001 0.009,0.003 0.013,0.004Zm22.573,14.172c8.597,-9.273 8.377,-20.146 6.34,-28.233c0.029,11.013 -2.62,25.987 -15.494,33.782c3.112,-0.745 6.288,-2.456 9.154,-5.549Zm-45.182,-53.601c-2.646,7.371 -3.953,17.361 0.683,28.671c-0,-0 0.074,0.149 0.003,-0.025c1.554,3.786 4.731,6.336 8.844,7.328l-0.113,-0.353l-0.043,-0.371l0.029,-0.37l0.099,-0.362l0.17,-0.341l0.237,-0.306l0.298,-0.257l0.338,-0.189l0.361,-0.115l0.37,-0.043l0.371,0.028l0.361,0.1l0.341,0.17l0.306,0.237c0.438,0.415 0.893,0.826 1.361,1.23c0.267,-0.755 0.553,-1.487 0.861,-2.197l-0.496,-2.095l-0.056,-0.392l0.024,-0.385l0.097,-0.365l0.164,-0.334l0.224,-0.297l0.28,-0.252l0.33,-0.196l0.365,-0.127l0.386,-0.056l0.385,0.024l0.365,0.097l0.165,0.081c1.78,-2.874 3.899,-5.305 6.185,-7.354l-0.017,-0.029l-0.13,-0.606c-0.076,-1.343 -0.243,-2.708 -0.485,-4.057l-0.003,-0.013l-0.025,-0.389l0.05,-0.376l0.119,-0.352l0.181,-0.321l0.237,-0.281l0.291,-0.235l0.337,-0.178l0.375,-0.11l0.397,-0.033l0.385,0.048l0.359,0.12l0.323,0.184l0.281,0.24l0.233,0.291l0.176,0.336l0.11,0.374l0.002,0.01c0.152,0.85 0.275,1.706 0.37,2.559c0.975,-0.683 1.962,-1.309 2.95,-1.88c-3.054,-11.566 -9.878,-19.078 -15.562,-23.564c0.824,0.962 1.619,1.945 2.37,2.93c0.463,0.596 0.341,1.459 -0.26,1.906l-0.007,0.005c-0.241,0.173 -0.524,0.264 -0.807,0.264c-0.367,0 -0.734,-0.149 -1,-0.438c-0.03,-0.024 -0.057,-0.053 -0.081,-0.085c-0.843,-1.114 -1.746,-2.226 -2.683,-3.29c-0.5,-0.558 -0.447,-1.424 0.122,-1.914c0.313,-0.28 0.718,-0.387 1.102,-0.327c-0.49,-0.361 -0.969,-0.698 -1.431,-1.013l-0.123,0.232l-0.248,0.303l-0.304,0.249l-0.337,0.18l-0.361,0.11l-0.376,0.038l-0.37,-0.036l-0.296,-0.089l0.044,0.304l-0.024,0.385l-0.097,0.365l-0.164,0.334l-0.224,0.297l-0.28,0.252l-0.33,0.196l-0.3,0.104l-0.246,0.065l-0.276,0.017l-0.327,-0.028l-0.311,-0.08l-0.556,-0.304l-0.434,-0.473l-0.155,-0.291l-0.105,-0.319l-0.14,-0.586l-0.059,0.105l-0.433,0.398l-0.517,0.244l-0.567,0.085l-0.355,-0.033l-0.053,-0.016c-0.174,0.304 -0.349,0.618 -0.524,0.943c0.674,0.234 1.056,0.964 0.847,1.657c-0.396,1.356 -0.748,2.731 -1.03,4.097l-0,0.002c-0.138,0.651 -0.705,1.083 -1.329,1.083c-0.087,-0 -0.173,-0.009 -0.26,-0.024l-0.004,-0l-0.013,-0.003c-0.424,-0.086 -0.759,-0.363 -0.937,-0.723Zm15.091,-2.59l-0.223,0.272c0.15,-0.006 0.288,-0.08 0.376,-0.198c-0.053,-0.02 -0.104,-0.044 -0.153,-0.074Zm-0.07,-0.048l-0.14,0.283l0.199,-0.242c-0.02,-0.013 -0.04,-0.026 -0.059,-0.041Zm-0.521,0.176l-0.039,-0.049l0.35,0.173l-0.44,-0.373c0.022,0.112 0.071,0.192 0.129,0.249Zm-14.337,11.802c-0.757,-0.012 -1.345,-0.636 -1.329,-1.383l-0,-0.002c0.037,-1.451 0.15,-2.949 0.324,-4.443c0.08,-0.736 0.742,-1.269 1.5,-1.189c0.74,0.08 1.285,0.76 1.19,1.505c-0.164,1.417 -0.268,2.821 -0.301,4.194c-0.016,0.747 -0.626,1.329 -1.357,1.329l-0.017,-0l-0.489,-0.499c0,0.405 0.406,0.478 0.479,0.488Zm1.624,7.587l0.395,-0.218c0.071,-0.105 0.098,-0.235 0.075,-0.361c0.136,0.739 -0.334,1.434 -1.053,1.588c-0.101,0.026 -0.201,0.03 -0.286,0.03c-0.636,0 -1.205,-0.437 -1.33,-1.088c-0.291,-1.437 -0.5,-2.939 -0.624,-4.441l-0,-0.005c-0.053,-0.74 0.504,-1.402 1.248,-1.458c0.769,-0.066 1.409,0.494 1.462,1.238c0.114,1.404 0.311,2.797 0.575,4.141l-0.472,0.574l0.01,-0c0.047,0.002 0.225,-0.003 0.365,-0.177c-0.091,0.109 -0.224,0.174 -0.365,0.177Zm-0.047,-0.03l0.02,0.017c-0.003,-0.01 -0.008,-0.022 -0.014,-0.037c-0.002,0.007 -0.004,0.013 -0.006,0.02Zm4.901,11.44l0.267,-0.488c0.741,1.155 1.579,2.273 2.473,3.347c0.489,0.574 0.409,1.439 -0.164,1.917l-0.008,0.007c-0.257,0.204 -0.552,0.306 -0.861,0.306c-0.391,-0 -0.773,-0.165 -1.043,-0.488c-0.963,-1.159 -1.858,-2.369 -2.668,-3.607c-0.407,-0.62 -0.235,-1.462 0.388,-1.872c0.623,-0.422 1.468,-0.236 1.877,0.391l-0.262,0.486c0,0 0,0.001 0.001,0.001Zm-0.379,-0.458c-0.042,-0.09 -0.081,-0.142 -0.111,-0.113c-0.011,0.011 -0.021,0.022 -0.03,0.032c0.049,0.023 0.096,0.049 0.141,0.081Zm0.503,0.646c0.025,-0.017 0.05,-0.038 0.076,-0.064l-0.093,0.039c0.006,0.008 0.011,0.017 0.017,0.025Zm15.966,-15.838c-0.214,-0.001 -0.403,-0.143 -0.465,-0.348c-0.395,-1.312 -0.874,-2.638 -1.423,-3.949c-0.286,-0.689 0.039,-1.489 0.732,-1.776c0.689,-0.285 1.489,0.039 1.773,0.73c0.589,1.394 1.097,2.816 1.518,4.211l0.001,0.003c0.212,0.719 -0.192,1.474 -0.911,1.691l-0.009,0.002c-0.129,0.037 -0.248,0.052 -0.383,0.052c-0.582,0 -1.127,-0.382 -1.302,-0.965c0.062,0.207 0.253,0.349 0.469,0.349Zm-19.409,7.744c0.431,1.303 0.956,2.585 1.544,3.804c0.329,0.664 0.048,1.484 -0.631,1.81c-0.192,0.095 -0.384,0.137 -0.586,0.137c-0.499,0 -0.988,-0.285 -1.221,-0.773c-0.642,-1.346 -1.215,-2.75 -1.688,-4.17c-0.244,-0.711 0.147,-1.482 0.852,-1.717c0.712,-0.242 1.482,0.149 1.715,0.856c0.006,0.017 0.011,0.035 0.015,0.053Zm-0.323,0.574c0.096,-0.032 0.18,-0.093 0.24,-0.176c0.064,-0.089 0.096,-0.194 0.093,-0.3c0.001,0.102 -0.031,0.204 -0.093,0.289c-0.061,0.085 -0.146,0.146 -0.243,0.178c0.001,0.003 0.002,0.006 0.003,0.009Zm12.579,0.532l0.995,4.222c0.175,0.709 -0.263,1.44 -0.973,1.621c-0.12,0.041 -0.226,0.048 -0.343,0.048c-0.61,0 -1.168,-0.418 -1.316,-1.044l-0.996,-4.222c-0.176,-0.715 0.27,-1.452 1,-1.629c0.717,-0.179 1.457,0.269 1.632,1.002l0.001,0.002Zm-0.997,-4.22l0.001,0.007c0.175,0.709 -0.263,1.44 -0.973,1.621c-0.12,0.041 -0.226,0.048 -0.343,0.048c-0.61,-0 -1.168,-0.418 -1.316,-1.044l-0.996,-4.213c-0.176,-0.715 0.27,-1.452 1,-1.628c0.717,-0.179 1.457,0.269 1.633,1.002l0.994,4.207Zm4.496,-12.646c-0.022,-0.026 -0.041,-0.054 -0.057,-0.084c-0.644,-1.218 -1.365,-2.439 -2.133,-3.635c-0.409,-0.62 -0.225,-1.465 0.401,-1.874c0.621,-0.408 1.465,-0.223 1.874,0.403l0.001,0.002c0.813,1.257 1.572,2.553 2.254,3.828c0.355,0.653 0.109,1.482 -0.549,1.834c-0.204,0.113 -0.423,0.166 -0.643,0.166c-0.444,0 -0.893,-0.229 -1.148,-0.64Zm0.542,-0.1l-0.152,0.253l-0.004,0.027l0.164,-0.272c-0.003,-0.003 -0.005,-0.005 -0.008,-0.008Zm-8.358,5.986c-0.61,-0 -1.168,-0.418 -1.317,-1.044l-0.995,-4.212c-0.177,-0.715 0.269,-1.452 0.999,-1.629c0.717,-0.179 1.458,0.269 1.633,1.003l0.996,4.212c0.175,0.71 -0.263,1.441 -0.973,1.622c-0.121,0.041 -0.226,0.048 -0.343,0.048Zm-0.686,-10.112l0.001,0.007c0.175,0.71 -0.263,1.44 -0.973,1.621c-0.12,0.041 -0.226,0.048 -0.343,0.048c-0.61,0 -1.168,-0.418 -1.316,-1.044l-0.996,-4.222c-0.176,-0.715 0.27,-1.452 0.999,-1.629c0.718,-0.179 1.458,0.269 1.633,1.002l0.001,0.001l0.994,4.216Z"/></svg>