<?xml version="1.0" encoding="UTF-8" standalone="no"?><!DOCTYPE svg PUBLIC "-//W3C//DTD SVG 1.1//EN" "http://www.w3.org/Graphics/SVG/1.1/DTD/svg11.dtd"><svg width="100%" height="100%" viewBox="0 0 86 88" version="1.1" xmlns="http://www.w3.org/2000/svg" xmlns:xlink="http://www.w3.org/1999/xlink" xml:space="preserve" xmlns:serif="http://www.serif.com/" style="fill-rule:evenodd;clip-rule:evenodd;stroke-linejoin:round;stroke-miterlimit:2;"><rect id="Artboard1" x="0" y="0" width="85.548" height="87.774" style="fill:none;"/><path d="M80.812,39.896l0.621,-0.922c0.402,0.988 0.224,2.115 -0.461,2.934l-0.001,0.002c-0.685,0.814 -1.758,1.189 -2.805,0.966c-3.663,-0.77 -6.985,-2.611 -9.603,-5.318c-0.407,-0.421 -1.082,-0.432 -1.504,-0.028c-2.681,2.573 -7.035,5.31 -11.915,7.509c0.398,0.636 0.755,1.29 1.054,1.961c0.167,0.374 0.339,0.766 0.516,1.175c1.352,3.102 3.018,6.971 5.968,9.701c2.35,2.172 4.686,3.727 7.148,4.747c0.849,0.352 1.703,0.335 2.537,-0.047c1.925,-0.884 4.17,-0.778 6.002,0.28c1.511,0.875 2.593,2.285 3.047,3.97l0.01,0.041c0.44,1.675 0.202,3.422 -0.666,4.922c-0.825,1.431 -2.147,2.487 -3.726,2.976c0.366,1.613 0.115,3.282 -0.714,4.718c-0.875,1.51 -2.284,2.592 -3.968,3.046c-0.564,0.154 -1.136,0.228 -1.704,0.228c-1.132,-0 -2.251,-0.296 -3.261,-0.88c-1.831,-1.057 -3.043,-2.949 -3.241,-5.06l-0.001,-0.002c-0.084,-0.915 -0.497,-1.662 -1.224,-2.221c-2.116,-1.623 -4.628,-2.869 -7.687,-3.817c-3.837,-1.19 -8.023,-0.694 -11.383,-0.315c-0.444,0.049 -0.872,0.099 -1.281,0.142c-6.579,0.686 -14.113,-3.027 -19.923,-6.38c-4.188,-2.416 -7.189,-6.314 -8.454,-10.973c-0.866,-3.19 -0.842,-6.478 0.03,-9.576c-6.6,-4.221 -10.32,-10.126 -10.32,-16.339c0,-4.963 2.357,-9.566 6.382,-13.291c5.894,-5.455 15.397,-9.027 26.106,-9.027c10.626,-0 24.689,6.389 30.671,12.122c0.423,0.405 1.097,0.394 1.504,-0.027c2.619,-2.708 5.943,-4.548 9.606,-5.319c1.047,-0.218 2.119,0.151 2.804,0.969l0.002,0.003c0.679,0.818 0.857,1.939 0.455,2.93l-0.005,0.013l-0.131,0.32l-0.768,0.52l-0.208,-0.314c-0.034,0.085 -0.068,0.17 -0.102,0.253c0.097,0.04 0.203,0.061 0.31,0.061c0.337,-0 0.64,-0.204 0.766,-0.516c-1.62,3.991 -2.52,6.184 -2.52,11.303c-0,5.114 0.9,7.311 2.52,11.302l-0.562,0.834c0.001,0.001 0.001,0.001 0.001,0.002l0.564,-0.83l0.131,0.32l-0.617,0.929c0,0.001 0,0.002 0,0.003Zm-74.23,-12.708c-0,0.049 -0,0.098 -0,0.147c-0,0.165 0.003,0.33 0.009,0.494c0.003,-0.185 0.003,-0.421 -0.009,-0.641Zm0.026,0.97c0,0.001 0,0.003 0,0.004c0.031,-0.001 0.086,-0.005 0.161,-0.022l-0.161,0.018Zm0.8,-0.823c-0,4.876 2.962,9.516 8.116,13.003c0.141,-0.278 0.29,-0.554 0.447,-0.825c1.123,-1.946 2.618,-3.657 4.377,-5.052c0.303,-2.346 0.462,-4.738 0.462,-7.126c0,-5.11 -0.695,-10.11 -2.053,-14.894c-6.854,3.429 -11.349,8.802 -11.349,14.894Zm12.201,-5.304c0,2.368 -1.925,4.293 -4.292,4.293c-2.368,-0 -4.293,-1.925 -4.293,-4.293c-0,-2.368 1.925,-4.292 4.293,-4.292c2.367,-0 4.292,1.924 4.292,4.292Zm-4.289,0.785c0.432,-0 0.782,-0.353 0.785,-0.786c-0.001,-0.432 -0.353,-0.783 -0.785,-0.783c-0.433,-0 -0.785,0.351 -0.785,0.784c0,0.433 0.352,0.785 0.785,0.785Zm62.81,48.092c-0.234,-0.27 -0.516,-0.572 -0.516,-0.458l0.49,0.491c0.009,-0.011 0.018,-0.022 0.026,-0.033Zm-0.406,-0.871c0.406,-0.704 0.512,-1.519 0.304,-2.301c-0.212,-0.782 -0.713,-1.436 -1.415,-1.843c-0.849,-0.489 -1.889,-0.536 -2.782,-0.127c-1.733,0.796 -3.58,0.828 -5.341,0.101c-0.942,-0.39 -1.866,-0.848 -2.777,-1.373l-3.236,5.606c0.911,0.526 1.77,1.095 2.576,1.716c1.511,1.16 2.404,2.776 2.582,4.675c0.092,0.98 0.65,1.86 1.501,2.349l0.002,0.002c0.701,0.406 1.519,0.511 2.3,0.303c0.782,-0.212 1.436,-0.713 1.843,-1.415c0.392,-0.678 0.506,-1.471 0.32,-2.233c-0.431,-1.769 0.599,-3.556 2.348,-4.066c0.751,-0.22 1.383,-0.715 1.775,-1.394Zm-54.286,-40.263c-0.001,0.018 -0.001,0.036 -0.002,0.055l0.027,0.028l-0.025,-0.083Zm0.025,-0.743c-0.006,0.226 -0.013,0.452 -0.022,0.679c0.014,0.09 0.022,0.146 0.022,0.147l0,-0.826Zm0.799,0.826c-0.032,0.766 -0.077,1.529 -0.138,2.291c0.971,-0.447 1.986,-0.81 3.031,-1.081c1.285,-0.332 2.578,-0.524 3.865,-0.577c-0.399,-0.391 -0.943,-0.633 -1.544,-0.633l-5.214,0Zm41.592,-10.28c-0.142,-0.085 -0.279,-0.181 -0.411,-0.287l-0.245,0.611c0.261,0 0.502,-0.123 0.656,-0.324Zm12.501,20.599l-0.23,-0.156l-0.001,0.008l0.218,0.145c0.005,0.001 0.009,0.002 0.013,0.003Zm0.238,-24.636l-0.103,-0.155c-0.025,-0.016 -0.049,-0.034 -0.072,-0.052c-0.115,0.028 -0.23,0.057 -0.344,0.087c0.013,0.024 0.027,0.047 0.042,0.069c0.093,0.139 0.224,0.244 0.375,0.305c0.034,-0.084 0.068,-0.169 0.102,-0.254Zm-13.885,4.208c0.239,0.18 0.49,0.153 0.49,0.153c-0.209,0 -0.409,-0.079 -0.562,-0.221l0.072,0.068Zm-0.127,-0.12c-5.521,-5.263 -18.428,-11.103 -28.197,-11.096c-5.229,0 -10.141,0.907 -14.39,2.497c1.445,4.924 2.224,10.066 2.31,15.324l5.165,0c2.721,0 4.998,1.9 5.588,4.442c1.989,0.381 3.91,1.104 5.686,2.166c4.138,2.393 8.89,5.447 12.232,9.201c4.791,-2.077 9.089,-4.704 11.65,-7.158c1.811,-1.742 4.707,-1.687 6.453,0.12c1.845,1.906 4.119,3.283 6.629,4.025c-1.537,-3.815 -2.448,-6.423 -2.448,-11.81c0,-5.39 0.909,-7.997 2.45,-11.816c-2.511,0.741 -4.785,2.121 -6.631,4.027c-1.719,1.779 -4.55,1.857 -6.37,0.198c-0.043,-0.032 -0.086,-0.072 -0.127,-0.12Zm0.617,0.273l-0.714,-0.411c0.03,0.053 0.063,0.098 0.097,0.138l0.045,0.043l0.002,0.002l0.57,0.228Zm-16.028,47.465c0.163,-0.002 0.327,-0.003 0.491,-0.003c0.01,-0 0.02,-0 0.03,-0c-0,-0.193 -0.008,-0.386 -0.03,-0.535c-0.025,-0.176 -0.069,-0.292 -0.143,-0.279c-0.489,0.086 -0.487,0.453 -0.348,0.817Zm0.491,-0.83c2.167,0 4.436,0.221 6.605,0.898c1.078,0.334 2.094,0.703 3.058,1.108l3.459,-5.993c-0.832,-0.633 -1.661,-1.329 -2.487,-2.094c-3.411,-3.159 -5.377,-7.614 -6.799,-10.876l-0.001,-0.002c-0.172,-0.397 -0.341,-0.781 -0.503,-1.147c-2.348,-5.26 -8.742,-9.394 -14.02,-12.445l-0.011,-0.006c-3.274,-1.961 -7.154,-2.494 -10.929,-1.516c-3.807,0.985 -7.096,3.466 -9.023,6.804c-1.947,3.373 -2.456,7.303 -1.434,11.065c1.019,3.761 3.443,6.905 6.821,8.855c5.281,3.051 12.066,6.523 17.806,5.931c0.398,-0.042 0.817,-0.088 1.25,-0.137c1.804,-0.205 3.951,-0.445 6.208,-0.445Z"/></svg>