<svg width="115" height="79" viewBox="0 0 115 79" fill="none" xmlns="http://www.w3.org/2000/svg">
<path fill-rule="evenodd" clip-rule="evenodd" d="M57.6231 22.9386H57.6145C57.5268 22.938 57.4405 22.9242 57.3568 22.8989L57.3546 22.8985C57.3215 22.8883 57.2891 22.8763 57.2576 22.8627C57.101 22.7955 56.5806 22.2161 56.451 22.0501C53.419 18.1622 52.7329 14.8538 52.9961 12.263C53.4024 8.26416 56.1607 5.80495 57.041 5.1299C57.2128 4.99808 57.4141 4.92552 57.6231 4.92552C57.8321 4.92552 58.0332 4.99808 58.2052 5.1299C59.0855 5.80495 61.8438 8.26416 62.2499 12.263C62.5131 14.8538 61.8272 18.1622 58.795 22.0501C58.6656 22.2161 58.1453 22.7955 57.9886 22.8627C57.9569 22.8763 57.9247 22.8883 57.8916 22.8985L57.8892 22.8989C57.8057 22.9242 57.7192 22.938 57.6318 22.9386H57.6231Z" fill="#B1C03E"/>
<path fill-rule="evenodd" clip-rule="evenodd" d="M59.2291 30.152C59.2291 30.152 58.6113 27.0224 60.7618 24.1412C62.1124 22.3315 64.584 20.5669 69.1658 19.8996C69.4811 19.8536 69.8005 19.9488 70.0392 20.1601C70.2778 20.3711 70.4114 20.6765 70.4043 20.9949C70.4043 20.9949 70.335 24.0724 69.0835 26.8218C68.2713 28.606 66.9691 30.2339 64.975 30.9669C63.6602 31.45 62.0285 31.5545 60.0034 30.9926C59.6064 30.8826 59.3063 30.5566 59.2291 30.152Z" fill="#B1C03E"/>
<path fill-rule="evenodd" clip-rule="evenodd" d="M55.2434 30.9926C53.2182 31.5545 51.5865 31.45 50.2717 30.9669C48.2774 30.2339 46.9754 28.606 46.1632 26.8218C44.9117 24.0724 44.8424 20.9949 44.8424 20.9949C44.8353 20.6765 44.9689 20.3711 45.2075 20.1601C45.446 19.9488 45.7656 19.8536 46.0809 19.8996C50.6627 20.5669 53.1343 22.3315 54.4849 24.1412C56.6352 27.0224 56.0176 30.152 56.0176 30.152C55.9404 30.5566 55.6404 30.8826 55.2434 30.9926Z" fill="#B1C03E"/>
<path fill-rule="evenodd" clip-rule="evenodd" d="M36.3974 73.1835C27.0506 73.1835 22.6769 65.7502 22.6769 56.4033V25.9819C22.6769 16.7207 30.1959 9.20173 39.4573 9.20173H47.6489C48.5153 9.20173 49.2187 9.90496 49.2187 10.7713C49.2187 11.6376 48.5153 12.3411 47.6489 12.3411H39.4573C31.9286 12.3411 25.8163 18.4534 25.8163 25.9819V56.4033C25.8163 63.8475 28.953 70.0441 36.3974 70.0441C36.4189 70.0441 36.4405 70.0446 36.4618 70.0455C36.5002 70.0444 36.5388 70.043 36.5776 70.0415C39.8503 69.913 40.5605 68.2986 43.0922 67.2521C43.5254 67.073 46.4273 65.8989 50.0025 67.2785C53.1319 68.4863 55.2001 70.9622 57.4884 71.0796C57.5031 71.0805 57.5173 71.0811 57.5308 71.0816C57.5836 71.0796 57.6446 71.0758 57.7181 71.0683C60.3415 70.7977 62.4699 67.833 66.3105 66.8872C66.9837 66.7215 69.6629 66.1649 72.33 67.4045C74.5682 68.4448 75.4079 69.9212 78.5058 70.0441C85.9502 70.0441 89.0869 63.8475 89.0869 56.4033V25.9819C89.0869 18.4534 82.9746 12.3411 75.4461 12.3411H67.2542C66.3879 12.3411 65.6845 11.6376 65.6845 10.7713C65.6845 9.90496 66.3879 9.20173 67.2542 9.20173H75.4461C84.7075 9.20173 92.2265 16.7207 92.2265 25.9819V56.4033C92.2265 65.7502 87.8528 73.1835 78.5058 73.1835C78.4778 73.1835 78.4501 73.1828 78.4223 73.1813C73.7784 73.1542 72.5339 70.7645 70.0887 70.1196C69.3784 69.9323 68.2502 69.8271 67.1988 70.0284C64.4972 70.5454 62.7424 72.4652 60.1043 73.4161C58.91 73.8466 58.0439 73.8734 57.5266 73.8787C57.3247 73.8836 57.0632 73.873 56.7248 73.8339C53.2719 73.4347 51.0397 70.6644 48.0362 70.0597C47.9962 70.0517 47.0194 69.8067 45.6713 69.9856C43.3503 70.2938 42.4391 71.8461 39.8106 72.7075C38.8029 73.0379 37.621 73.1928 36.3974 73.1835Z" fill="#397E40"/>
<path fill-rule="evenodd" clip-rule="evenodd" d="M47.336 43.2951C47.2626 43.316 47.1865 43.3293 47.1083 43.3346C42.3353 43.655 39.0539 42.4099 36.7842 40.5607C31.5132 36.2665 31.7488 28.5139 31.7488 28.5139C31.7595 28.2023 31.9115 27.9112 32.1636 27.7188C32.4159 27.5266 32.7426 27.4532 33.0559 27.518C43.3112 29.6414 46.9883 33.4319 48.1928 36.5446C48.9202 38.4244 48.7835 40.1269 48.5159 41.2733C49.2329 42.0724 53.7677 47.2937 56.5406 54.5235V40.0404C56.5406 39.4075 57.0257 38.8935 57.6233 38.8935C58.2209 38.8935 58.706 39.4075 58.706 40.0404V54.5235C61.479 47.2937 66.0138 42.0724 66.7308 41.2733C66.4631 40.1269 66.3264 38.4244 67.0536 36.5446C68.2582 33.4319 71.9354 29.6414 82.1908 27.518C82.5039 27.4532 82.8308 27.5266 83.0829 27.7188C83.3352 27.9112 83.4872 28.2023 83.4978 28.5139C83.4978 28.5139 83.7335 36.2665 78.4625 40.5607C76.1928 42.4099 72.9114 43.655 68.1381 43.3346C68.0602 43.3293 67.9841 43.316 67.9106 43.2951C65.9942 45.5271 58.706 54.7206 58.706 65.4559C58.706 66.0888 58.2209 66.6028 57.6233 66.6028C57.0257 66.6028 56.5406 66.0888 56.5406 65.4559C56.5406 54.7206 49.2524 45.5271 47.336 43.2951Z" fill="#397E40"/>
<path fill-rule="evenodd" clip-rule="evenodd" d="M62.6501 63.0433C62.5866 63.0223 62.5256 62.9954 62.4679 62.9634L62.394 62.931L62.3569 62.8929C62.2551 62.8194 62.1665 62.7284 62.0958 62.6244L62.0605 62.5882L62.029 62.5125C62.0017 62.4599 61.9788 62.4049 61.9602 62.3476L61.9313 62.278L61.9278 62.2205C61.9176 62.1672 61.9111 62.1124 61.9091 62.0565C61.9091 62.0565 61.6599 56.0727 66.5357 51.4541C69.6782 48.4774 74.9945 46.0186 84.0498 46.3071C84.3578 46.3169 84.6469 46.4575 84.8449 46.6939C85.043 46.93 85.1309 47.2393 85.0867 47.5445C85.0867 47.5445 84.2788 53.1029 81.4339 57.5506C79.4278 60.6869 76.4336 63.2528 72.1225 63.2528C64.0881 63.2528 62.8909 63.1203 62.7331 63.0797L62.6501 63.0433Z" fill="#B1C03E"/>
<path fill-rule="evenodd" clip-rule="evenodd" d="M53.5899 62.0654L53.577 62.278L53.4479 62.5882L53.1143 62.931L52.775 63.0797C52.6175 63.1203 51.4203 63.2528 43.3856 63.2528C39.0745 63.2528 36.0803 60.6869 34.0742 57.5506C31.2293 53.1029 30.4216 47.5445 30.4216 47.5445C30.3774 47.2393 30.4653 46.93 30.6632 46.6939C30.8612 46.4575 31.1506 46.3169 31.4586 46.3071C40.5138 46.0186 45.8301 48.4774 48.9726 51.4541C53.8482 56.0727 53.5992 62.0565 53.5992 62.0565L53.5899 62.0654Z" fill="#B1C03E"/>
<path d="M57.6133 41.0256C59.9123 41.0256 61.7759 39.162 61.7759 36.863C61.7759 34.5641 59.9123 32.7005 57.6133 32.7005C55.3144 32.7005 53.4507 34.5641 53.4507 36.863C53.4507 39.162 55.3144 41.0256 57.6133 41.0256Z" fill="#B1C03E"/>
</svg>
